# xmcd CD database file
#
# Track frame offsets:
#	150
#	20724
#	43516
#	62178
#	80364
#	98190
#	121698
#	144177
#	159136
#
# Disc length: 2403 seconds
#
# Revision: 2
# Processed by: cddbd v1.5.2PL0 Copyright (c) Steve Scherf et al.
# Submitted via: CDex 1.70beta3
#
DISCID=66096109
DTITLE=岡村靖幸 - yellow
DYEAR=1987
DGENRE=Rock
TTITLE0=Out of Blue
TTITLE1=Young oh! oh!
TTITLE2=冷たくされても
TTITLE3=Check Out Love
TTITLE4=はじめて
TTITLE5=Water Bed
TTITLE6=RAIN
TTITLE7=彼女はScience Teacher
TTITLE8=White courage
EXTD=YEAR: 1987
EXTT0=
EXTT1=
EXTT2=
EXTT3=
EXTT4=
EXTT5=
EXTT6=
EXTT7=
EXTT8=
PLAYORDER=
